ply
format ascii 1.0
comment Created by Open Asset Import Library - http://assimp.sf.net (v5.0.1588609223)
element vertex 180
property float x
property float y
property float z
element face 60
property list uchar int vertex_index
end_header
0.42832601 0.50696802 0.41635901
0.48727399 0.497852 0.387214
0.30702099 0.49574101 0.32877901
0.30702099 0.49574101 0.32877901
0.32358 0.50578499 0.382238
0.42832601 0.50696802 0.41635901
0.32358 0.50578499 0.382238
0.276741 0.51642799 0.44497201
0.42832601 0.50696802 0.41635901
0.276741 0.51642799 0.44497201
0.35191301 0.51597399 0.54888898
0.42832601 0.50696802 0.41635901
0.35191301 0.51597399 0.54888898
0.276741 0.51642799 0.44497201
0.313862 0.52425098 0.67629099
0.276741 0.51642799 0.44497201
0.22536901 0.52722502 0.53207302
0.313862 0.52425098 0.67629099
0.313862 0.52425098 0.67629099
0.224307 0.52434301 0.70521498
0.32489601 0.494663 0.97500002
0.313862 0.52425098 0.67629099
0.22536901 0.52722502 0.53207302
0.224307 0.52434301 0.70521498
0.46117899 0.45982301 0.313041
0.45333499 0.33070499 0.20190801
0.34906799 0.38174599 0.201263
0.34906799 0.38174599 0.201263
0.35753599 0.45708001 0.28554201
0.46117899 0.45982301 0.313041
0.49677199 0.48043799 0.35292599
0.46117899 0.45982301 0.313041
0.35753599 0.45708001 0.28554201
0.35753599 0.45708001 0.28554201
0.31248599 0.48764399 0.30937701
0.49677199 0.48043799 0.35292599
0.48400599 0.225572 0.127874
0.406634 0.221477 0.096681699
0.56434101 0.025 0.025
0.48400599 0.225572 0.127874
0.351693 0.31924501 0.147172
0.406634 0.221477 0.096681699
0.45333499 0.33070499 0.20190801
0.351693 0.31924501 0.147172
0.48400599 0.225572 0.127874
0.45333499 0.33070499 0.20190801
0.34906799 0.38174599 0.201263
0.351693 0.31924501 0.147172
0.219025 0.493855 0.298235
0.227595 0.50253201 0.27261001
0.31801 0.49441499 0.29811001
0.218367 0.52037603 0.30699599
0.219025 0.493855 0.298235
0.30270001 0.45941699 0.33902201
0.227595 0.50253201 0.27261001
0.218367 0.52037603 0.30699599
0.30735299 0.51502103 0.33781999
0.30270001 0.45941699 0.33902201
0.31801 0.49441499 0.29811001
0.40516901 0.46112499 0.26722899
0.30735299 0.51502103 0.33781999
0.30270001 0.45941699 0.33902201
0.37199801 0.42753601 0.36642
0.31801 0.49441499 0.29811001
0.30735299 0.51502103 0.33781999
0.36944801 0.53019702 0.400334
0.37199801 0.42753601 0.36642
0.40516901 0.46112499 0.26722899
0.40516901 0.46112499 0.26722899
0.37199801 0.42753601 0.36642
0.36944801 0.53019702 0.400334
0.36944801 0.53019702 0.400334
0.40516901 0.46112499 0.26722899
0.36944801 0.53019702 0.400334
0.36944801 0.53019702 0.400334
0.37199801 0.42753601 0.36642
0.40516901 0.46112499 0.26722899
0.49032399 0.47615501 0.340399
0.36944801 0.53019702 0.400334
0.37199801 0.42753601 0.36642
0.47047099 0.436537 0.394889
0.40516901 0.46112499 0.26722899
0.36944801 0.53019702 0.400334
0.47488499 0.50600803 0.397926
0.47047099 0.436537 0.394889
0.49032399 0.47615501 0.340399
0.68804598 0.45224801 0.423208
0.47488499 0.50600803 0.397926
0.47047099 0.436537 0.394889
0.68112701 0.44524199 0.44389999
0.49032399 0.47615501 0.340399
0.47488499 0.50600803 0.397926
0.68059498 0.46665701 0.450975
0.92710602 0.45015401 0.509453
0.68059498 0.46665701 0.450975
0.68112701 0.44524199 0.44389999
0.92710602 0.45015401 0.509453
0.68112701 0.44524199 0.44389999
0.68804598 0.45224801 0.423208
0.68059498 0.46665701 0.450975
0.92710602 0.45015401 0.509453
0.68804598 0.45224801 0.423208
0.227595 0.50253201 0.27261001
0.219025 0.493855 0.298235
0.146503 0.47683901 0.300596
0.219025 0.493855 0.298235
0.218367 0.52037603 0.30699599
0.16438399 0.52947402 0.28898299
0.31277701 0.60616601 0.26576099
0.227595 0.50253201 0.27261001
0.174537 0.51426601 0.254825
0.31277701 0.60616601 0.26576099
0.218367 0.52037603 0.30699599
0.227595 0.50253201 0.27261001
0.218367 0.52037603 0.30699599
0.31277701 0.60616601 0.26576099
0.16438399 0.52947402 0.28898299
0.31277701 0.60616601 0.26576099
0.174537 0.51426601 0.254825
0.16438399 0.52947402 0.28898299
0.16438399 0.52947402 0.28898299
0.025 0.45031199 0.281286
0.146503 0.47683901 0.300596
0.025 0.45031199 0.281286
0.174537 0.51426601 0.254825
0.146503 0.47683901 0.300596
0.16438399 0.52947402 0.28898299
0.174537 0.51426601 0.254825
0.025 0.45031199 0.281286
0.219025 0.493855 0.298235
0.31801 0.49441499 0.29811001
0.30270001 0.45941699 0.33902201
0.218367 0.52037603 0.30699599
0.30270001 0.45941699 0.33902201
0.30735299 0.51502103 0.33781999
0.227595 0.50253201 0.27261001
0.30735299 0.51502103 0.33781999
0.31801 0.49441499 0.29811001
0.30270001 0.45941699 0.33902201
0.40516901 0.46112499 0.26722899
0.37199801 0.42753601 0.36642
0.30735299 0.51502103 0.33781999
0.37199801 0.42753601 0.36642
0.36944801 0.53019702 0.400334
0.31801 0.49441499 0.29811001
0.36944801 0.53019702 0.400334
0.40516901 0.46112499 0.26722899
0.37199801 0.42753601 0.36642
0.40516901 0.46112499 0.26722899
0.37199801 0.42753601 0.36642
0.37199801 0.42753601 0.36642
0.36944801 0.53019702 0.400334
0.37199801 0.42753601 0.36642
0.40516901 0.46112499 0.26722899
0.36944801 0.53019702 0.400334
0.40516901 0.46112499 0.26722899
0.37199801 0.42753601 0.36642
0.49032399 0.47615501 0.340399
0.47047099 0.436537 0.394889
0.36944801 0.53019702 0.400334
0.47047099 0.436537 0.394889
0.47488499 0.50600803 0.397926
0.40516901 0.46112499 0.26722899
0.47488499 0.50600803 0.397926
0.49032399 0.47615501 0.340399
0.47047099 0.436537 0.394889
0.68804598 0.45224801 0.423208
0.68112701 0.44524199 0.44389999
0.47488499 0.50600803 0.397926
0.68112701 0.44524199 0.44389999
0.68059498 0.46665701 0.450975
0.49032399 0.47615501 0.340399
0.68059498 0.46665701 0.450975
0.68804598 0.45224801 0.423208
0.227595 0.50253201 0.27261001
0.146503 0.47683901 0.300596
0.174537 0.51426601 0.254825
0.219025 0.493855 0.298235
0.16438399 0.52947402 0.28898299
0.146503 0.47683901 0.300596
3 0 1 2
3 3 4 5
3 6 7 8
3 9 10 11
3 12 13 14
3 15 16 17
3 18 19 20
3 21 22 23
3 24 25 26
3 27 28 29
3 30 31 32
3 33 34 35
3 36 37 38
3 39 40 41
3 42 43 44
3 45 46 47
3 48 49 50
3 51 52 53
3 54 55 56
3 57 58 59
3 60 61 62
3 63 64 65
3 66 67 68
3 69 70 71
3 72 73 74
3 75 76 77
3 78 79 80
3 81 82 83
3 84 85 86
3 87 88 89
3 90 91 92
3 93 94 95
3 96 97 98
3 99 100 101
3 102 103 104
3 105 106 107
3 108 109 110
3 111 112 113
3 114 115 116
3 117 118 119
3 120 121 122
3 123 124 125
3 126 127 128
3 129 130 131
3 132 133 134
3 135 136 137
3 138 139 140
3 141 142 143
3 144 145 146
3 147 148 149
3 150 151 152
3 153 154 155
3 156 157 158
3 159 160 161
3 162 163 164
3 165 166 167
3 168 169 170
3 171 172 173
3 174 175 176
3 177 178 179
